# xmcd
# 
# Track frame offsets:
#     150
#     18856
#     53803
#     72287
#     96646
#     113029
#     135969
#     155321
#     179800
#     199050
#     217029
#     260379
#     288228
# 
# Disc length: 4024
# 
# Revision: 4
# Processed by: cddbd v1.5.2PL0 Copyright (c) Steve Scherf et al.
# Submitted via: fre:ac v1.0.31
# 
DISCID=bd0fb60d
DTITLE=Gary Clark Jr. - Blak And Blu
DYEAR=2012
DGENRE=Blues
TTITLE0=Ain't Messin 'Round
TTITLE1=When My Train Pulls In
TTITLE2=Blak And Blu
TTITLE3=Bright Lights
TTITLE4=Travis County
TTITLE5=The Life
TTITLE6=Glitter Ain't Gold [Jumpin' For Nothin']
TTITLE7=Numb
TTITLE8=Please Come Home
TTITLE9=Things Are Changin'
TTITLE10=Third Stone From The Sun - If You Love Me Like You Say
TTITLE11=You Saved Me
TTITLE12=Next Door Neighbor Blues
EXTD=
EXTT0=
EXTT1=
EXTT2=
EXTT3=
EXTT4=
EXTT5=
EXTT6=
EXTT7=
EXTT8=
EXTT9=
EXTT10=
EXTT11=
EXTT12=
PLAYORDER=
